<svg width="705" height="140" viewBox="0 0 705 140" fill="none" xmlns="http://www.w3.org/2000/svg">
<path d="M17.9517 17.5C9.8988 17.5 3.36839 24.0304 3.36839 32.0833V102.083L29.9101 84.5833H82.1184C90.1713 84.5833 96.7017 78.0529 96.7017 70V17.5H17.9517Z" fill="url(#paint0_linear_182_647)"/>
<path d="M137.535 61.2501V134.167L110.993 116.667H58.7851C50.7321 116.667 44.2017 110.136 44.2017 102.083V84.5834H82.1184C90.1713 84.5834 96.7017 78.053 96.7017 70.0001V46.6667H122.952C131.005 46.6667 137.535 53.1972 137.535 61.2501Z" fill="url(#paint1_linear_182_647)"/>
<path d="M200.452 94V58C200.452 54.6875 201.608 51.875 203.92 49.5625C206.295 47.1875 209.139 46 212.452 46H260.452C260.452 49.375 259.264 52.2188 256.889 54.5312C254.514 56.8438 251.702 58 248.452 58H218.452C216.764 58 215.327 58.5938 214.139 59.7812C213.014 60.9688 212.452 62.375 212.452 64V94H200.452ZM284.452 94C281.077 94 278.233 92.8438 275.92 90.5312C273.608 88.1562 272.452 85.3125 272.452 82V58C272.452 54.6875 273.608 51.875 275.92 49.5625C278.295 47.1875 281.139 46 284.452 46H332.452L314.452 64H332.452L320.452 76H290.452L308.452 58H290.452C288.764 58 287.327 58.5938 286.139 59.7812C285.014 60.9688 284.452 62.375 284.452 64V76C284.452 77.6875 285.014 79.125 286.139 80.3125C287.327 81.4375 288.764 82 290.452 82H332.452C332.452 85.375 331.264 88.2188 328.889 90.5312C326.514 92.8438 323.702 94 320.452 94H284.452ZM344.452 94V58C344.452 54.6875 345.608 51.875 347.92 49.5625C350.295 47.1875 353.139 46 356.452 46H404.452V94H392.452V58H362.452C360.764 58 359.327 58.5938 358.139 59.7812C357.014 60.9688 356.452 62.375 356.452 64V82H392.452C392.452 85.375 391.264 88.2188 388.889 90.5312C386.514 92.8438 383.702 94 380.452 94H344.452ZM428.452 94C425.077 94 422.233 92.8438 419.92 90.5312C417.608 88.1562 416.452 85.3125 416.452 82V46H476.452C476.452 49.375 475.264 52.2188 472.889 54.5312C470.514 56.8438 467.702 58 464.452 58H428.452V76C428.452 77.6875 429.014 79.125 430.139 80.3125C431.327 81.4375 432.764 82 434.452 82H476.452C476.452 85.375 475.264 88.2188 472.889 90.5312C470.514 92.8438 467.702 94 464.452 94H428.452ZM488.452 94V34H500.452V46H536.452C539.764 46 542.577 47.1875 544.889 49.5625C547.264 51.9375 548.452 54.75 548.452 58V94H536.452V64C536.452 62.375 535.858 60.9688 534.67 59.7812C533.483 58.5938 532.077 58 530.452 58H500.452V94H488.452ZM560.452 94V58C560.452 54.6875 561.608 51.875 563.92 49.5625C566.295 47.1875 569.139 46 572.452 46H620.452V94H608.452V58H578.452C576.764 58 575.327 58.5938 574.139 59.7812C573.014 60.9688 572.452 62.375 572.452 64V82H608.452C608.452 85.375 607.264 88.2188 604.889 90.5312C602.514 92.8438 599.702 94 596.452 94H560.452ZM656.452 94C653.077 94 650.233 92.8438 647.92 90.5312C645.608 88.1562 644.452 85.3125 644.452 82V58H632.452C632.452 54.6875 633.608 51.875 635.92 49.5625C638.295 47.1875 641.139 46 644.452 46V34H656.452V46H692.452C692.452 49.375 691.264 52.2188 688.889 54.5312C686.514 56.8438 683.702 58 680.452 58H656.452V76C656.452 77.6875 657.014 79.125 658.139 80.3125C659.327 81.4375 660.764 82 662.452 82H692.452C692.452 85.375 691.264 88.2188 688.889 90.5312C686.514 92.8438 683.702 94 680.452 94H656.452Z" fill="white"/>
<defs>
<linearGradient id="paint0_linear_182_647" x1="50.0351" y1="17.5" x2="50.0351" y2="102.083" gradientUnits="userSpaceOnUse">
<stop stop-color="#105EFF"/>
<stop offset="1" stop-color="#2E2E77"/>
</linearGradient>
<linearGradient id="paint1_linear_182_647" x1="141.338" y1="169.085" x2="61.0776" y2="30.0709" gradientUnits="userSpaceOnUse">
<stop stop-color="#105EFF"/>
<stop offset="1" stop-color="#105EFF" stop-opacity="0.71"/>
</linearGradient>
</defs>
</svg>
