<svg width="16" height="17" viewBox="0 0 16 17" fill="none" xmlns="http://www.w3.org/2000/svg">
  <path
    d="M8 3C4.55375 3 1.75 5.23753 1.75 7.98828C1.75 9.70653 2.83659 11.2762 4.62109 12.188C4.11184 13.0465 3.62587 13.7378 3.62012 13.7461C3.50687 13.9071 3.49862 14.1196 3.59912 14.2891C3.69012 14.4418 3.8543 14.5342 4.0293 14.5342C4.0483 14.5342 4.06743 14.533 4.08643 14.5308C4.15168 14.5233 5.66214 14.3364 7.50439 12.9604C7.67239 12.9712 7.8385 12.9766 8 12.9766C11.4462 12.9766 14.25 10.739 14.25 7.98828C14.25 5.23753 11.4462 3 8 3ZM8 4C10.8948 4 13.25 5.78903 13.25 7.98828C13.25 10.1875 10.8948 11.9766 8 11.9766C7.8055 11.9766 7.60225 11.968 7.396 11.9497C7.271 11.9382 7.1454 11.9752 7.0459 12.0527C6.3589 12.5855 5.72033 12.9308 5.20508 13.1528C5.38383 12.8648 5.57691 12.5418 5.76416 12.2061C5.83416 12.0813 5.84705 11.9324 5.7998 11.7974C5.75255 11.6624 5.64983 11.5542 5.51758 11.5C3.81033 10.7993 2.75 9.45328 2.75 7.98828C2.75 5.78903 5.10525 4 8 4ZM5.5 7.25C5.08575 7.25 4.75 7.58575 4.75 8C4.75 8.41425 5.08575 8.75 5.5 8.75C5.91425 8.75 6.25 8.41425 6.25 8C6.25 7.58575 5.91425 7.25 5.5 7.25ZM8 7.25C7.58575 7.25 7.25 7.58575 7.25 8C7.25 8.41425 7.58575 8.75 8 8.75C8.41425 8.75 8.75 8.41425 8.75 8C8.75 7.58575 8.41425 7.25 8 7.25ZM10.5 7.25C10.0857 7.25 9.75 7.58575 9.75 8C9.75 8.41425 10.0857 8.75 10.5 8.75C10.9143 8.75 11.25 8.41425 11.25 8C11.25 7.58575 10.9143 7.25 10.5 7.25Z"
    fill="currentColor" />
</svg>
