<svg xmlns="http://www.w3.org/2000/svg" width="16" height="16" viewBox="0 0 16 16" fill="currentColor">
  <path fill-rule="evenodd" clip-rule="evenodd" d="M2.7036 1.37034C3.04741 1.02653 3.51373 0.833374 3.99996 0.833374H9.33329H9.33331C9.47275 0.833374 9.59885 0.890449 9.68954 0.98251L13.6843 4.97722C13.7763 5.0679 13.8333 5.19398 13.8333 5.33337L13.8333 5.3379V13.3334C13.8333 13.8196 13.6401 14.2859 13.2963 14.6297C12.9525 14.9736 12.4862 15.1667 12 15.1667H3.99996C3.51373 15.1667 3.04741 14.9736 2.7036 14.6297C2.35978 14.2859 2.16663 13.8196 2.16663 13.3334V2.66671C2.16663 2.18048 2.35978 1.71416 2.7036 1.37034ZM3.99996 1.83337H8.83331V5.33337C8.83331 5.60952 9.05717 5.83337 9.33331 5.83337H12.8333V13.3334C12.8333 13.5544 12.7455 13.7663 12.5892 13.9226C12.4329 14.0789 12.221 14.1667 12 14.1667H3.99996C3.77895 14.1667 3.56698 14.0789 3.4107 13.9226C3.25442 13.7663 3.16663 13.5544 3.16663 13.3334V2.66671C3.16663 2.44569 3.25442 2.23373 3.4107 2.07745C3.56698 1.92117 3.77895 1.83337 3.99996 1.83337ZM9.83331 2.5405L12.1262 4.83337H9.83331V2.5405ZM5.33331 8.16663C5.05717 8.16663 4.83331 8.39048 4.83331 8.66663C4.83331 8.94277 5.05717 9.16663 5.33331 9.16663H10.6666C10.9428 9.16663 11.1666 8.94277 11.1666 8.66663C11.1666 8.39048 10.9428 8.16663 10.6666 8.16663H5.33331ZM4.83331 11.3334C4.83331 11.0572 5.05717 10.8334 5.33331 10.8334H10.6666C10.9428 10.8334 11.1666 11.0572 11.1666 11.3334C11.1666 11.6095 10.9428 11.8334 10.6666 11.8334H5.33331C5.05717 11.8334 4.83331 11.6095 4.83331 11.3334ZM5.33331 5.5C5.05717 5.5 4.83331 5.72386 4.83331 6C4.83331 6.27614 5.05717 6.5 5.33331 6.5H6.66665C6.94279 6.5 7.16665 6.27614 7.16665 6C7.16665 5.72386 6.94279 5.5 6.66665 5.5H5.33331Z" />
</svg>
