<svg width="17" height="17" viewBox="0 0 17 17" fill="none" xmlns="http://www.w3.org/2000/svg">
  <g id="send">
    <path id="Vector"
      d="M14.6111 2.33327C14.5349 2.3339 14.4598 2.35194 14.3917 2.386L2.39168 8.386C2.31456 8.42456 2.24872 8.4824 2.20055 8.55391C2.15238 8.62543 2.12352 8.70818 2.11677 8.79414C2.11002 8.88009 2.12561 8.96634 2.16203 9.04449C2.19845 9.12264 2.25446 9.19005 2.32462 9.24017L4.52514 10.8124L5.47371 13.6581C5.50257 13.7447 5.55457 13.8217 5.62406 13.8808C5.69355 13.9399 5.7779 13.9789 5.86796 13.9935C5.95802 14.0082 6.05036 13.9979 6.13499 13.9638C6.21962 13.9297 6.2933 13.873 6.34806 13.8001L7.05249 12.8606L10.3207 15.2376C10.3843 15.2839 10.4579 15.3146 10.5355 15.3271C10.6132 15.3396 10.6927 15.3336 10.7676 15.3097C10.8425 15.2857 10.9107 15.2444 10.9667 15.1891C11.0226 15.1338 11.0647 15.0661 11.0896 14.9915L15.0896 2.99147C15.1148 2.91597 15.1216 2.83555 15.1094 2.7569C15.0972 2.67825 15.0665 2.60363 15.0197 2.53926C14.9729 2.47488 14.9114 2.42261 14.8403 2.38678C14.7693 2.35096 14.6907 2.33261 14.6111 2.33327ZM13.2478 5.35345L10.3565 14.0266L7.67293 12.0755L13.2478 5.35345ZM10.684 5.35801L4.934 9.87559L3.58113 8.90879L10.684 5.35801ZM11.2784 6.16205L6.56746 11.843C6.56681 11.8437 6.56616 11.8443 6.56551 11.845L6.56355 11.8476C6.55841 11.8538 6.55342 11.8601 6.54858 11.8665C6.54319 11.8733 6.53798 11.8802 6.53295 11.8873L6.12085 12.4361L5.53426 10.6751L11.2784 6.16205Z"
      fill="currentColor" />
  </g>
</svg>
