<svg width="14" height="14" viewBox="0 0 14 14" fill="none" xmlns="http://www.w3.org/2000/svg">
  <g id="Delete">
    <path id="Vector"
      d="M5.97905 1.16666C5.90859 1.16576 5.83895 1.18189 5.77605 1.21368C5.71316 1.24547 5.65888 1.29199 5.61783 1.34926C5.57677 1.40654 5.55016 1.47288 5.54025 1.54265C5.53034 1.61242 5.53743 1.68355 5.56092 1.75H4.27007C3.7342 1.75 3.2324 2.01817 2.93535 2.46435L2.24492 3.5H2.18738C2.12941 3.49918 2.07185 3.50989 2.01805 3.5315C1.96425 3.55312 1.91529 3.58522 1.874 3.62593C1.83271 3.66663 1.79993 3.71514 1.77755 3.76863C1.75518 3.82211 1.74365 3.87952 1.74365 3.9375C1.74365 3.99548 1.75518 4.05288 1.77755 4.10636C1.79993 4.15985 1.83271 4.20836 1.874 4.24907C1.91529 4.28977 1.96425 4.32187 2.01805 4.34349C2.07185 4.3651 2.12941 4.37582 2.18738 4.375H2.41012C2.44765 4.38067 2.48576 4.38143 2.52348 4.37727L3.24468 11.1084C3.33169 11.9199 4.02367 12.5417 4.83973 12.5417H9.15947C9.97553 12.5417 10.6675 11.9199 10.7545 11.1084L11.4763 4.37727C11.5133 4.38124 11.5506 4.38047 11.5874 4.375H11.8124C11.8704 4.37582 11.9279 4.3651 11.9817 4.34349C12.0355 4.32187 12.0845 4.28977 12.1258 4.24907C12.1671 4.20836 12.1998 4.15985 12.2222 4.10636C12.2446 4.05288 12.2561 3.99548 12.2561 3.9375C12.2561 3.87952 12.2446 3.82211 12.2222 3.76863C12.1998 3.71514 12.1671 3.66663 12.1258 3.62593C12.0845 3.58522 12.0355 3.55312 11.9817 3.5315C11.9279 3.50989 11.8704 3.49918 11.8124 3.5H11.7548L11.0644 2.46435C10.7671 2.01841 10.2654 1.75 9.7297 1.75H8.43885C8.46234 1.68355 8.46943 1.61242 8.45952 1.54265C8.44961 1.47288 8.423 1.40654 8.38194 1.34926C8.34089 1.29199 8.2866 1.24547 8.22371 1.21368C8.16082 1.18189 8.09118 1.16576 8.02072 1.16666H5.97905ZM4.27007 2.625H9.7297C9.97394 2.625 10.2009 2.74639 10.3364 2.9497L10.7033 3.5H3.29651L3.66338 2.9497L3.66395 2.94913C3.79913 2.74608 4.02543 2.625 4.27007 2.625ZM3.40361 4.375H10.5962L9.88465 11.015C9.8445 11.3894 9.53575 11.6667 9.15947 11.6667H4.83973C4.46345 11.6667 4.15527 11.3894 4.11512 11.015L3.40361 4.375Z"
      fill="currentColor" />
  </g>
</svg>
